<?xml version="1.0" standalone="no"?>
<!DOCTYPE svg PUBLIC "-//W3C//DTD SVG 20010904//EN"
 "http://www.w3.org/TR/2001/REC-SVG-20010904/DTD/svg10.dtd">
<svg version="1.0" xmlns="http://www.w3.org/2000/svg"
 width="756.000000pt" height="756.000000pt" viewBox="0 0 756.000000 756.000000"
 preserveAspectRatio="xMidYMid meet">
<metadata>
Created by potrace 1.11, written by Peter Selinger 2001-2013
</metadata>
<g transform="translate(0.000000,756.000000) scale(0.100000,-0.100000)"
fill="#000000" stroke="none">
<path d="M3715 7321 c-16 -4 -41 -13 -55 -21 -92 -48 -3003 -1875 -3015 -1893
-22 -32 -19 -80 8 -108 12 -13 181 -123 374 -244 194 -121 353 -222 353 -225
-1 -3 -157 -102 -348 -220 -191 -118 -359 -227 -374 -242 -31 -30 -37 -80 -14
-113 7 -11 176 -121 375 -245 198 -124 361 -227 361 -230 0 -3 -163 -106 -361
-230 -199 -124 -368 -234 -375 -245 -23 -33 -17 -83 14 -113 15 -15 183 -124
374 -242 191 -118 347 -217 347 -220 0 -3 -162 -106 -360 -230 -199 -124 -367
-234 -375 -245 -23 -33 -17 -83 14 -114 15 -15 698 -446 1519 -959 1287 -804
1499 -934 1547 -944 120 -24 24 -78 1659 944 821 512 1504 944 1520 959 30 31
36 81 13 114 -8 11 -176 121 -374 245 -274 171 -358 228 -349 236 7 7 168 109
359 228 191 120 355 227 363 239 24 35 19 85 -12 115 -16 15 -184 124 -375
242 -191 118 -347 217 -347 220 0 3 156 102 346 220 190 118 359 227 374 242
37 33 39 85 7 122 -13 13 -176 120 -363 236 -187 117 -346 218 -352 224 -10 9
69 62 340 231 193 121 362 231 375 244 13 15 22 36 22 57 0 20 -9 43 -22 58
-21 23 -2921 1842 -3008 1886 -44 23 -139 33 -185 21z m895 -1256 c314 -196
602 -382 642 -414 214 -170 243 -318 89 -464 -94 -90 -232 -168 -406 -230
l-71 -25 -94 59 c-52 32 -98 63 -102 67 -4 4 43 23 105 41 152 44 282 108 352
173 83 78 90 141 25 221 -28 33 -227 174 -235 165 -1 -1 -8 -27 -14 -57 -17
-79 -37 -116 -96 -169 -103 -95 -239 -142 -412 -142 -114 0 -214 16 -326 54
-170 57 -411 200 -518 307 -78 78 -132 188 -132 268 0 172 182 313 461 356 42
7 43 7 25 27 -15 17 -16 21 -3 28 8 5 42 27 75 49 33 22 61 40 63 40 1 1 259
-159 572 -354z m-1596 -485 c126 -32 238 -92 646 -347 212 -132 395 -245 408
-252 12 -6 22 -16 22 -20 0 -16 -150 -103 -168 -98 -9 2 -177 104 -372 226
-527 329 -612 366 -758 328 -146 -39 -243 -145 -254 -282 l-3 -38 100 -62
c566 -352 780 -487 782 -493 3 -8 -143 -102 -158 -102 -11 0 -1164 714 -1186
734 -9 8 8 24 71 62 l82 51 64 -38 64 -39 14 68 c25 125 85 202 205 263 32 16
81 36 110 44 79 21 239 19 331 -5z"/>
<path d="M3992 6154 c-123 -31 -246 -96 -289 -153 -62 -80 -42 -172 59 -270
134 -132 386 -257 555 -276 72 -9 159 8 226 42 101 51 185 157 190 240 l2 37
-300 187 c-165 103 -311 194 -325 202 -23 14 -34 13 -118 -9z"/>
</g>
</svg>
