<?xml version="1.0" standalone="no"?>
<!DOCTYPE svg PUBLIC "-//W3C//DTD SVG 20010904//EN"
 "http://www.w3.org/TR/2001/REC-SVG-20010904/DTD/svg10.dtd">
<svg version="1.0" xmlns="http://www.w3.org/2000/svg"
 width="644.000000pt" height="644.000000pt" viewBox="0 0 644.000000 644.000000"
 preserveAspectRatio="xMidYMid meet">
<metadata>
Created by potrace 1.11, written by Peter Selinger 2001-2013
</metadata>
<g transform="translate(0.000000,644.000000) scale(0.100000,-0.100000)"
fill="#000000" stroke="none">
<path d="M3136 6426 c-21 -8 -61 -29 -90 -47 -50 -31 -143 -89 -192 -119 -61
-37 -473 -295 -504 -315 -48 -31 -985 -618 -1007 -630 -10 -5 -82 -50 -161
-100 -78 -49 -150 -94 -160 -100 -24 -14 -435 -270 -497 -310 -27 -18 -129
-81 -225 -140 -96 -59 -187 -121 -202 -138 -58 -65 -30 -112 117 -200 50 -30
162 -100 250 -156 88 -55 184 -115 214 -133 29 -18 64 -40 77 -48 12 -8 66
-41 119 -74 52 -32 97 -62 100 -66 6 -10 -15 -24 -475 -309 -206 -129 -387
-246 -402 -262 -33 -35 -36 -76 -8 -111 11 -14 61 -51 112 -82 51 -32 149 -93
218 -136 128 -81 219 -137 249 -155 75 -45 289 -181 300 -191 11 -10 3 -19
-48 -51 -35 -21 -88 -54 -119 -74 -31 -20 -124 -78 -207 -129 -82 -51 -161
-101 -175 -110 -14 -10 -86 -55 -160 -100 -155 -95 -190 -126 -190 -171 0 -35
46 -86 103 -116 18 -9 76 -44 130 -79 53 -35 100 -64 102 -64 3 0 46 -27 96
-60 50 -33 92 -60 95 -60 2 0 37 -21 78 -48 94 -59 191 -120 331 -207 61 -37
133 -82 160 -100 60 -38 248 -156 273 -170 9 -6 28 -18 42 -27 14 -9 291 -181
615 -383 325 -203 613 -382 640 -400 140 -89 344 -214 371 -228 17 -9 53 -19
81 -23 92 -12 138 6 345 136 105 66 193 120 195 120 3 0 23 13 46 28 60 41 64
43 672 422 303 188 584 364 625 390 41 26 131 83 200 125 69 43 154 96 189
119 36 22 73 46 83 51 86 47 789 495 811 516 34 34 36 78 5 114 -13 14 -216
146 -452 294 -235 147 -428 271 -428 277 0 5 31 28 68 51 38 23 74 46 79 50 6
4 39 26 75 47 36 22 88 54 115 71 76 49 204 129 223 140 28 16 203 125 260
162 29 19 60 45 68 59 21 31 12 83 -19 111 -12 11 -107 73 -212 138 -104 65
-206 128 -225 140 -126 81 -263 165 -269 165 -4 0 -16 9 -26 20 -10 11 -23 20
-30 20 -6 0 -29 13 -51 30 -21 16 -45 30 -51 30 -30 0 -7 23 87 82 55 35 108
68 118 73 134 77 658 415 673 434 26 33 20 85 -13 117 -18 17 -573 367 -943
595 -33 20 -220 137 -415 259 -195 122 -367 230 -382 239 -15 9 -84 52 -154
96 -70 44 -133 82 -138 84 -6 2 -13 7 -16 10 -3 3 -14 11 -25 18 -43 25 -343
213 -620 386 -160 100 -304 188 -320 195 -45 21 -153 25 -199 8z"/>
</g>
</svg>
